<?xml version="1.0" standalone="no" ?>
<!DOCTYPE svg PUBLIC "-//W3C//DTD SVG 1.1//EN"
  "http://www.w3.org/Graphics/SVG/1.1/DTD/svg11.dtd">
<svg
  t="1647331324074"
  class="icon"
  viewBox="0 0 1024 1024"
  version="1.1"
  xmlns="http://www.w3.org/2000/svg"
  p-id="10553"
  data-spm-anchor-id="a313x.7781069.0.i41"
  xmlns:xlink="http://www.w3.org/1999/xlink"
  width="500"
  height="500"
><defs><style type="text/css" /></defs><path
    d="M297.456 654.336c-76.96 0-128.672-57.28-128.672-142.592 0-86.304 50.512-142.08 128.672-142.08a120.192 120.192 0 0 1 118.88 81.744 32 32 0 0 1-60.768 20.16 55.472 55.472 0 0 0-58.112-37.92c-56.256 0-64.672 48.928-64.672 78.096 0 23.632 6.304 78.592 64.672 78.592a55.52 55.52 0 0 0 58.72-39.76 32 32 0 1 1 60.592 20.56 118.896 118.896 0 0 1-119.312 83.2zM679.648 649.664a32 32 0 0 1-32-32V439.2l-49.2 136.096a32.016 32.016 0 0 1-30.08 21.12 32 32 0 0 1-30.08-21.072l-49.472-136.24v178.56a32 32 0 1 1-64 0V406.32a32 32 0 0 1 32-32h54.144a32 32 0 0 1 30.08 21.088l27.248 75.056 27.136-75.008a31.984 31.984 0 0 1 30.08-21.12h54.144a32 32 0 0 1 32 32v211.328a32 32 0 0 1-32 32zM823.824 649.696c-87.2 0-106.288-62.08-106.288-86a32 32 0 0 1 64 0c0.464 5.952 5.504 22 42.288 22 40.992 0 42.24-8.688 42.272-20.864-5.92-7.952-36.464-19.088-53.072-25.152-42.176-15.392-94.656-34.528-95.488-83.488a80.192 80.192 0 0 1 21.92-59.68c26.4-26.864 67.024-26.864 84.368-26.864a110.656 110.656 0 0 1 81.536 29.008 85.408 85.408 0 0 1 24.736 57.056 32 32 0 0 1-32 31.936h-0.064a32 32 0 0 1-31.936-31.248c-0.512-6.944-5.712-22.752-42.272-22.752-8.512 0-31.152 0-38.752 7.744a18.24 18.24 0 0 0-3.552 12.736c5.76 8.048 36.656 19.312 53.44 25.44 42.384 15.456 95.136 34.688 95.136 84.128 0 39.232-18.448 86-106.272 86z"
    p-id="10554"
    data-spm-anchor-id="a313x.7781069.0.i42"
    class="selected"
    fill="#FDD737"
  /><path
    d="M156.64 610.496A496.576 496.576 0 0 1 103.44 452.8 422.832 422.832 0 0 0 648.96 869.392a497.616 497.616 0 0 1-492.32-258.88z"
    p-id="10555"
  /><path
    d="M238.816 704.592a496.56 496.56 0 0 1-110.272-124.704 422.832 422.832 0 0 0 664.48 172.24 497.616 497.616 0 0 1-554.208-47.536z"
    p-id="10556"
    data-spm-anchor-id="a313x.7781069.0.i44"
    class="selected"
    fill="#FDD737"
  /><path
    d="M62.768 353.568a496.576 496.576 0 0 1 62.016-154.48 422.832 422.832 0 0 0 143.968 671.184A497.616 497.616 0 0 1 62.768 353.568z"
    p-id="10557"
  /><path
    d="M552.4 79.648A496.56 496.56 0 0 1 716.8 105.856a422.832 422.832 0 0 0-622.528 289.28A497.616 497.616 0 0 1 552.4 79.632zM512 934.432A637.984 637.984 0 0 1 57.888 745.344a543.84 543.84 0 0 0 908.224 0A637.984 637.984 0 0 1 512 934.432z"
    p-id="10558"
    data-spm-anchor-id="a313x.7781069.0.i45"
    class="selected"
    fill="#FDD737"
  /></svg>
